<svg xmlns="http://www.w3.org/2000/svg" viewBox="0 0 48 48" width="48" height="48">
  <defs>
    <linearGradient id="ppt-bg" x1="0%" y1="0%" x2="100%" y2="100%">
      <stop offset="0%" stop-color="#EA3C10"/>
      <stop offset="100%" stop-color="#C4340C"/>
    </linearGradient>
    <linearGradient id="ppt-card" x1="0%" y1="0%" x2="100%" y2="100%">
      <stop offset="0%" stop-color="#F25B2A"/>
      <stop offset="100%" stop-color="#D9390D"/>
    </linearGradient>
  </defs>
  <!-- Background Presentation Card -->
  <rect x="14" y="6" width="28" height="36" rx="4" fill="url(#ppt-bg)"/>
  <!-- Presentation Slide Mockup Details -->
  <rect x="20" y="12" width="16" height="3" rx="1.5" fill="#FFFFFF" fill-opacity="0.8"/>
  <rect x="20" y="19" width="12" height="2.5" rx="1.25" fill="#FFFFFF" fill-opacity="0.6"/>
  <rect x="20" y="25" width="14" height="2.5" rx="1.25" fill="#FFFFFF" fill-opacity="0.6"/>
  <rect x="20" y="31" width="10" height="2.5" rx="1.25" fill="#FFFFFF" fill-opacity="0.6"/>
  <!-- Front Brand Badge with Shadow -->
  <rect x="6" y="14" width="20" height="20" rx="3.5" fill="#000000" fill-opacity="0.18" transform="translate(1, 1.5)"/>
  <rect x="6" y="14" width="20" height="20" rx="3.5" fill="url(#ppt-card)"/>
  <!-- Letter P -->
  <path d="M13 30V18h4.8c1.35 0 2.4.34 3.1 1.01.7.67 1.1 1.57 1.1 2.69 0 1.13-.39 2.05-1.09 2.72-.7.67-1.74 1.01-3.11 1.01H15.5V30H13zm2.5-6.8h2.2c.68 0 1.2-.15 1.54-.45.34-.3.51-.74.51-1.32 0-.58-.17-1.01-.5-1.3-.33-.29-.85-.43-1.55-.43H15.5v3.5z" fill="#FFFFFF"/>
</svg>
